IKResults
version=1
nRows=13
nColumns=40
inDegrees=yes

Units are S.I. units (second, meters, Newtons, ...)
If the header above contains a line with 'inDegrees', this indicates whether rotational values are in degrees (yes) or radians (no).

endheader
time	pelvis_tilt	pelvis_list	pelvis_rotation	pelvis_tx	pelvis_ty	pelvis_tz	hip_flexion_r	hip_adduction_r	hip_rotation_r	knee_angle_r	knee_angle_r_beta	ankle_angle_r	subtalar_angle_r	mtp_angle_r	hip_flexion_l	hip_adduction_l	hip_rotation_l	knee_angle_l	knee_angle_l_beta	ankle_angle_l	subtalar_angle_l	mtp_angle_l	lumbar_extension	lumbar_bending	lumbar_rotation	arm_flex_r	arm_add_r	arm_rot_r	elbow_flex_r	pro_sup_r	wrist_flex_r	wrist_dev_r	arm_flex_l	arm_add_l	arm_rot_l	elbow_flex_l	pro_sup_l	wrist_flex_l	wrist_dev_l
      6.50000000	     25.37120079	      0.35010938	   -176.57892759	      0.37840808	      0.57318284	     -0.92874087	     90.96377778	    -46.24486308	     10.69133003	     62.87442394	      1.09736571	     -4.75745371	      0.00000000	      0.00000000	     93.07648217	    -42.45362279	      5.99433066	     64.03234276	      1.11757521	     -5.61239026	      0.00000000	      0.00000000	    -34.41923342	     -3.82439898	     -0.72507413	     54.86895438	    -18.34550890	     85.71557987	     19.68333023	     76.32159341	      0.00000000	      0.00000000	     56.02738322	    -13.53343744	     77.80367402	     13.45095836	     64.17666201	      0.00000000	      0.00000000
      6.50500000	     25.44304971	      0.39598006	   -176.51712661	      0.37840310	      0.57396511	     -0.92865668	     90.82835522	    -46.29312581	     10.50700335	     62.74089292	      1.09503516	     -4.79310385	      0.00000000	      0.00000000	     92.99930405	    -42.31869206	      5.99134105	     63.85146105	      1.11441823	     -5.64515602	      0.00000000	      0.00000000	    -34.48988372	     -3.75336482	     -0.71041134	     54.89657991	    -18.40038785	     85.67024076	     19.73599181	     75.15369830	      0.00000000	      0.00000000	     55.90695586	    -13.27387758	     76.67314979	     13.21933827	     63.10051324	      0.00000000	      0.00000000
      6.51000000	     25.50260576	      0.44043516	   -176.56142902	      0.37841083	      0.57489236	     -0.92873126	     90.61799629	    -46.19046999	     10.32621668	     62.53094097	      1.09137080	     -4.85424689	      0.00000000	      0.00000000	     92.91239744	    -42.31736265	      5.96532137	     63.66443808	      1.11115406	     -5.73722268	      0.00000000	      0.00000000	    -34.59003310	     -3.75408837	     -0.67916156	     55.05733191	    -18.29839755	     85.97591589	     19.55039545	     75.44357175	      0.00000000	      0.00000000	     56.09695860	    -13.52858813	     77.31256820	     13.59071275	     63.09732370	      0.00000000	      0.00000000
      6.51500000	     25.55077235	      0.49135672	   -176.55931200	      0.37839917	      0.57570609	     -0.92869895	     90.42603028	    -46.18796148	     10.09975431	     62.34770998	      1.08817282	     -4.94154496	      0.00000000	      0.00000000	     92.84366752	    -42.24352126	      5.98753612	     63.50451274	      1.10836284	     -5.78473301	      0.00000000	      0.00000000	    -34.68238745	     -3.71425755	     -0.63344398	     55.12408670	    -18.34080611	     86.03748280	     19.58727873	     75.06195581	      0.00000000	      0.00000000	     56.10145933	    -13.44990178	     76.86583462	     13.57838617	     62.65189923	      0.00000000	      0.00000000
      6.52000000	     25.65805692	      0.53003506	   -176.54581512	      0.37839717	      0.57644198	     -0.92860439	     90.28818896	    -46.18260871	      9.91115453	     62.16156916	      1.08492405	     -4.82165116	      0.00000000	      0.00000000	     92.79984139	    -42.14439209	      5.98810603	     63.34041650	      1.10549882	     -5.68968755	      0.00000000	      0.00000000	    -34.71036966	     -3.68142902	     -0.56216241	     55.11888209	    -18.45316958	     85.88718974	     19.71512056	     74.21726629	      0.00000000	      0.00000000	     56.02657518	    -13.06819274	     75.82022514	     13.13673231	     61.81290595	      0.00000000	      0.00000000
      6.52500000	     25.67323102	      0.58392910	   -176.61156546	      0.37833888	      0.57736366	     -0.92865301	     90.02490140	    -46.11064874	      9.65094011	     61.95109143	      1.08125052	     -5.00185155	      0.00000000	      0.00000000	     92.69551402	    -42.16231728	      6.00366096	     63.17716856	      1.10264960	     -5.82232041	      0.00000000	      0.00000000	    -34.84350080	     -3.67957213	     -0.51931078	     55.25343384	    -18.33623392	     85.80709382	     19.49464359	     75.90594392	      0.00000000	      0.00000000	     56.38655802	    -13.51581709	     77.70716149	     13.67508015	     62.93429899	      0.00000000	      0.00000000
      6.53000000	     25.70491034	      0.65256945	   -176.56317681	      0.37827677	      0.57822848	     -0.92852940	     89.77787610	    -46.17784058	      9.34904680	     61.76407256	      1.07798643	     -4.88715709	      0.00000000	      0.00000000	     92.59867642	    -42.04120635	      6.05373634	     62.98426524	      1.09928281	     -5.75344093	      0.00000000	      0.00000000	    -34.95547279	     -3.58684472	     -0.52384576	     55.14809361	    -18.33024740	     85.29860660	     19.51663793	     74.33034368	      0.00000000	      0.00000000	     56.14891274	    -13.04887491	     75.67197484	     13.10268016	     61.72788843	      0.00000000	      0.00000000
      6.53500000	     25.98242903	      0.61903075	   -176.65465779	      0.37843771	      0.57857570	     -0.92857418	     89.97260547	    -46.01452268	      9.40560894	     61.57155284	      1.07462632	     -5.23230070	      0.00000000	      0.00000000	     92.69223560	    -42.03231674	      5.99092171	     62.84556343	      1.09686200	     -5.88905783	      0.00000000	      0.00000000	    -34.78287921	     -3.65693832	     -0.49339905	     55.41017617	    -18.33326059	     86.42302380	     19.54333984	     73.67397653	      0.00000000	      0.00000000	     56.08362051	    -13.20923973	     75.21415784	     13.47869873	     61.09164163	      0.00000000	      0.00000000
      6.54000000	     25.97290470	      0.68545851	   -176.80194761	      0.37830382	      0.57943800	     -0.92873008	     89.67280218	    -45.87620118	      9.09856364	     61.38678989	      1.07140160	     -5.16528859	      0.00000000	      0.00000000	     92.60641192	    -42.16005400	      6.02347741	     62.72796087	      1.09480945	     -5.88809651	      0.00000000	      0.00000000	    -34.92245057	     -3.70353358	     -0.31611064	     55.43211397	    -18.28901379	     85.93020979	     19.34898998	     75.70211766	      0.00000000	      0.00000000	     56.54600401	    -13.45287876	     77.66044188	     13.64015661	     62.79280753	      0.00000000	      0.00000000
      6.54500000	     26.13212273	      0.79910935	   -176.77858058	      0.37838016	      0.57998067	     -0.92856525	     89.55656948	    -45.88457473	      8.82173371	     61.20840726	      1.06828824	     -5.25876881	      0.00000000	      0.00000000	     92.72056255	    -42.03740082	      6.18462475	     62.56250840	      1.09192176	     -5.95033769	      0.00000000	      0.00000000	    -34.87464688	     -3.57378081	     -0.29954114	     55.49492103	    -18.25744165	     85.93135570	     19.27894600	     75.82953131	      0.00000000	      0.00000000	     56.54638457	    -13.41056489	     77.40990494	     13.58869048	     63.00446962	      0.00000000	      0.00000000
      6.55000000	     26.15057994	      0.99290230	   -176.70125663	      0.37826259	      0.58068227	     -0.92825797	     89.19667059	    -46.00411348	      8.32428110	     61.04418613	      1.06542204	     -5.30098065	      0.00000000	      0.00000000	     92.79674344	    -41.89251304	      6.42527133	     62.43834536	      1.08975471	     -5.97876888	      0.00000000	      0.00000000	    -34.96516041	     -3.32267681	     -0.26819947	     55.62766020	    -18.29866886	     86.23528194	     19.33251124	     75.57826847	      0.00000000	      0.00000000	     56.54186507	    -13.33586673	     77.24151849	     13.54208206	     62.36601031	      0.00000000	      0.00000000
      6.55500000	     26.44300952	      0.96499706	   -176.84390243	      0.37840193	      0.58088641	     -0.92838117	     89.40982628	    -45.79323051	      8.38087710	     60.86047728	      1.06221571	     -5.42120472	      0.00000000	      0.00000000	     92.93675172	    -41.95123138	      6.38697863	     62.31030644	      1.08752001	     -6.01048752	      0.00000000	      0.00000000	    -34.74709534	     -3.43664909	     -0.20661028	     55.59073337	    -18.21910842	     86.07112458	     19.21282647	     75.47030912	      0.00000000	      0.00000000	     56.58303290	    -13.41026461	     77.64528036	     13.59682875	     62.16186745	      0.00000000	      0.00000000
      6.56000000	     26.56332166	      0.99156313	   -176.93120160	      0.37832056	      0.58136891	     -0.92843858	     89.36089745	    -45.69811149	      8.23551526	     60.69578739	      1.05934133	     -5.50359323	      0.00000000	      0.00000000	     92.95095218	    -42.01348497	      6.38120742	     62.19660043	      1.08553546	     -6.11411274	      0.00000000	      0.00000000	    -34.72625436	     -3.46027189	     -0.14353530	     55.62899748	    -18.18469887	     86.06679715	     19.15348277	     75.50521086	      0.00000000	      0.00000000	     56.64727498	    -13.45534842	     77.91206366	     13.61310212	     62.52689843	      0.00000000	      0.00000000
